<svg version="1.1" xmlns="http://www.w3.org/2000/svg" xmlns:xlink="http://www.w3.org/1999/xlink" width="1329.95703125" height="1000"><defs/><g><g transform="translate(-70,-27) scale(1,1)"><rect fill="#C0C0C0" stroke="none" x="87" y="239" width="269.4443359375" height="295" opacity="0.2"/></g><g transform="translate(-70,-27) scale(1,1)"><rect fill="#ffffff" stroke="none" x="80" y="232" width="269.4443359375" height="295"/></g><g transform="translate(-70,-27) scale(1,1)"><path fill="none" stroke="#000000" d="M 80 232 L 349.4443359375 232 L 349.4443359375 527 L 80 527 L 80 232 Z Z" stroke-miterlimit="10"/></g><g transform="translate(-70,-27) scale(1,1)"><path fill="none" stroke="#000000" d="M 80 257 L 349.4443359375 257" stroke-miterlimit="10"/></g><g transform="translate(-70,-27) scale(1,1)"><path fill="none" stroke="#000000" d="M 80 370 L 349.4443359375 370" stroke-miterlimit="10"/></g><g transform="translate(-70,-27) scale(1,1)"><g><path fill="none" stroke="none"/><text fill="#000000" stroke="none" font-family="Arial" font-size="13px" font-style="normal" font-weight="bold" text-decoration="none" x="194.127197265625" y="251.5">Person</text></g></g><g transform="translate(-70,-27) scale(1,1)"><g><path fill="none" stroke="none"/><text fill="#000000" stroke="none" font-family="Arial" font-size="13px" font-style="normal" font-weight="normal" text-decoration="none" x="85" y="274.5">+firstname: str = None</text></g></g><g transform="translate(-70,-27) scale(1,1)"><g><path fill="none" stroke="none"/><text fill="#000000" stroke="none" font-family="Arial" font-size="13px" font-style="normal" font-weight="normal" text-decoration="none" x="85" y="289.5">+middlenames: list = []</text></g></g><g transform="translate(-70,-27) scale(1,1)"><g><path fill="none" stroke="none"/><text fill="#000000" stroke="none" font-family="Arial" font-size="13px" font-style="normal" font-weight="normal" text-decoration="none" x="85" y="304.5">+lastname: str = None</text></g></g><g transform="translate(-70,-27) scale(1,1)"><g><path fill="none" stroke="none"/><text fill="#000000" stroke="none" font-family="Arial" font-size="13px" font-style="normal" font-weight="normal" text-decoration="none" x="85" y="319.5">+usernames: list = []</text></g></g><g transform="translate(-70,-27) scale(1,1)"><g><path fill="none" stroke="none"/><text fill="#000000" stroke="none" font-family="Arial" font-size="13px" font-style="normal" font-weight="normal" text-decoration="none" x="85" y="334.5">+emails: list = []</text></g></g><g transform="translate(-70,-27) scale(1,1)"><g><path fill="none" stroke="none"/><text fill="#000000" stroke="none" font-family="Arial" font-size="13px" font-style="normal" font-weight="normal" text-decoration="none" x="85" y="349.5">+websites: list = []</text></g></g><g transform="translate(-70,-27) scale(1,1)"><g><path fill="none" stroke="none"/><text fill="#000000" stroke="none" font-family="Arial" font-size="13px" font-style="normal" font-weight="normal" text-decoration="none" x="85" y="364.5">+phones: list = []</text></g></g><g transform="translate(-70,-27) scale(1,1)"><g><path fill="none" stroke="none"/><text fill="#000000" stroke="none" font-family="Arial" font-size="13px" font-style="normal" font-weight="normal" text-decoration="none" x="85" y="387.5">+__init__(**kwargs: dict)</text></g></g><g transform="translate(-70,-27) scale(1,1)"><g><path fill="none" stroke="none"/><text fill="#000000" stroke="none" font-family="Arial" font-size="13px" font-style="normal" font-weight="normal" text-decoration="none" x="85" y="402.5">+__repr__()</text></g></g><g transform="translate(-70,-27) scale(1,1)"><g><path fill="none" stroke="none"/><text fill="#000000" stroke="none" font-family="Arial" font-size="13px" font-style="normal" font-weight="normal" text-decoration="none" x="85" y="417.5">+addPhones(phones: str OR list)</text></g></g><g transform="translate(-70,-27) scale(1,1)"><g><path fill="none" stroke="none"/><text fill="#000000" stroke="none" font-family="Arial" font-size="13px" font-style="normal" font-weight="normal" text-decoration="none" x="85" y="432.5">+addEmails(emails: str OR list)</text></g></g><g transform="translate(-70,-27) scale(1,1)"><g><path fill="none" stroke="none"/><text fill="#000000" stroke="none" font-family="Arial" font-size="13px" font-style="normal" font-weight="normal" text-decoration="none" x="85" y="447.5">+addUsernames(usernames: str OR list)</text></g></g><g transform="translate(-70,-27) scale(1,1)"><g><path fill="none" stroke="none"/><text fill="#000000" stroke="none" font-family="Arial" font-size="13px" font-style="normal" font-weight="normal" text-decoration="none" x="85" y="462.5">+scanUsername(*args: list)</text></g></g><g transform="translate(-70,-27) scale(1,1)"><g><path fill="none" stroke="none"/><text fill="#000000" stroke="none" font-family="Arial" font-size="13px" font-style="normal" font-weight="normal" text-decoration="none" x="85" y="477.5">+verifyWebsite(**kwargs: dict)</text></g></g><g transform="translate(-70,-27) scale(1,1)"><g><path fill="none" stroke="none"/><text fill="#000000" stroke="none" font-family="Arial" font-size="13px" font-style="normal" font-weight="normal" text-decoration="none" x="85" y="492.5">+addWebsite(website: Website)</text></g></g><g transform="translate(-70,-27) scale(1,1)"><g><path fill="none" stroke="none"/><text fill="#000000" stroke="none" font-family="Arial" font-size="13px" font-style="normal" font-weight="normal" text-decoration="none" x="85" y="507.5">+jsonExport()</text></g></g><g transform="translate(-70,-27) scale(1,1)"><g><path fill="none" stroke="none"/><text fill="#000000" stroke="none" font-family="Arial" font-size="13px" font-style="normal" font-weight="normal" text-decoration="none" x="85" y="522.5">+pdfExport()</text></g></g><g transform="translate(-70,-27) scale(1,1)"><rect fill="#C0C0C0" stroke="none" x="447" y="239" width="161.1025390625" height="115" opacity="0.2"/></g><g transform="translate(-70,-27) scale(1,1)"><rect fill="#ffffff" stroke="none" x="440" y="232" width="161.1025390625" height="115"/></g><g transform="translate(-70,-27) scale(1,1)"><path fill="none" stroke="#000000" d="M 440 232 L 601.1025390625 232 L 601.1025390625 347 L 440 347 L 440 232 Z Z" stroke-miterlimit="10"/></g><g transform="translate(-70,-27) scale(1,1)"><path fill="none" stroke="#000000" d="M 440 257 L 601.1025390625 257" stroke-miterlimit="10"/></g><g transform="translate(-70,-27) scale(1,1)"><path fill="none" stroke="#000000" d="M 440 295 L 601.1025390625 295" stroke-miterlimit="10"/></g><g transform="translate(-70,-27) scale(1,1)"><g><path fill="none" stroke="none"/><text fill="#000000" stroke="none" font-family="Arial" font-size="13px" font-style="normal" font-weight="bold" text-decoration="none" x="504.298095703125" y="251.5">Email</text></g></g><g transform="translate(-70,-27) scale(1,1)"><g><path fill="none" stroke="none"/><text fill="#000000" stroke="none" font-family="Arial" font-size="13px" font-style="normal" font-weight="normal" text-decoration="none" x="445" y="274.5">+address: str = None</text></g></g><g transform="translate(-70,-27) scale(1,1)"><g><path fill="none" stroke="none"/><text fill="#000000" stroke="none" font-family="Arial" font-size="13px" font-style="normal" font-weight="normal" text-decoration="none" x="445" y="289.5">+leaks: list = []</text></g></g><g transform="translate(-70,-27) scale(1,1)"><g><path fill="none" stroke="none"/><text fill="#000000" stroke="none" font-family="Arial" font-size="13px" font-style="normal" font-weight="normal" text-decoration="none" x="445" y="312.5">+__init__(address: dict)</text></g></g><g transform="translate(-70,-27) scale(1,1)"><g><path fill="none" stroke="none"/><text fill="#000000" stroke="none" font-family="Arial" font-size="13px" font-style="normal" font-weight="normal" text-decoration="none" x="445" y="327.5">+__repr__()</text></g></g><g transform="translate(-70,-27) scale(1,1)"><g><path fill="none" stroke="none"/><text fill="#000000" stroke="none" font-family="Arial" font-size="13px" font-style="normal" font-weight="normal" text-decoration="none" x="445" y="342.5">+scanLeaks()</text></g></g><g transform="translate(-70,-27) scale(1,1)"><rect fill="#C0C0C0" stroke="none" x="743" y="239" width="349" height="130" opacity="0.2"/></g><g transform="translate(-70,-27) scale(1,1)"><rect fill="#ffffff" stroke="none" x="736" y="232" width="349" height="130"/></g><g transform="translate(-70,-27) scale(1,1)"><path fill="none" stroke="#000000" d="M 736 232 L 1085 232 L 1085 362 L 736 362 L 736 232 Z Z" stroke-miterlimit="10"/></g><g transform="translate(-70,-27) scale(1,1)"><path fill="none" stroke="#000000" d="M 736 257 L 1085 257" stroke-miterlimit="10"/></g><g transform="translate(-70,-27) scale(1,1)"><path fill="none" stroke="#000000" d="M 736 310 L 1085 310" stroke-miterlimit="10"/></g><g transform="translate(-70,-27) scale(1,1)"><g><path fill="none" stroke="none"/><text fill="#000000" stroke="none" font-family="Arial" font-size="13px" font-style="normal" font-weight="bold" text-decoration="none" x="895.325927734375" y="251.5">Hash</text></g></g><g transform="translate(-70,-27) scale(1,1)"><g><path fill="none" stroke="none"/><text fill="#000000" stroke="none" font-family="Arial" font-size="13px" font-style="normal" font-weight="normal" text-decoration="none" x="741" y="274.5">+value: str = None</text></g></g><g transform="translate(-70,-27) scale(1,1)"><g><path fill="none" stroke="none"/><text fill="#000000" stroke="none" font-family="Arial" font-size="13px" font-style="normal" font-weight="normal" text-decoration="none" x="741" y="289.5">+protocol: str = None</text></g></g><g transform="translate(-70,-27) scale(1,1)"><g><path fill="none" stroke="none"/><text fill="#000000" stroke="none" font-family="Arial" font-size="13px" font-style="normal" font-weight="normal" text-decoration="none" x="741" y="304.5">+clear: str = None</text></g></g><g transform="translate(-70,-27) scale(1,1)"><g><path fill="none" stroke="none"/><text fill="#000000" stroke="none" font-family="Arial" font-size="13px" font-style="normal" font-weight="normal" text-decoration="none" x="741" y="327.5">+__init__(value: str, protocol: str = None, clear: str = None)</text></g></g><g transform="translate(-70,-27) scale(1,1)"><g><path fill="none" stroke="none"/><text fill="#000000" stroke="none" font-family="Arial" font-size="13px" font-style="normal" font-weight="normal" text-decoration="none" x="741" y="342.5">+__repr__()</text></g></g><g transform="translate(-70,-27) scale(1,1)"><g><path fill="none" stroke="none"/><text fill="#000000" stroke="none" font-family="Arial" font-size="13px" font-style="normal" font-weight="normal" text-decoration="none" x="741" y="357.5">+crackHash()</text></g></g><g transform="translate(-70,-27) scale(1,1)"><path fill="none" stroke="#000000" d="M 440 248 L 349 248" stroke-miterlimit="10"/></g><g transform="translate(-70,-27) scale(1,1)"><path fill="#000000" stroke="none" d="M 359.16267485762415 243.790482243984 L 349 248 L 359.16267485762415 252.209517756016 L 371 248"/></g><g transform="translate(-70,-27) scale(1,1)"><path fill="none" stroke="#000000" d="M 359.16267485762415 243.790482243984 L 349 248 L 359.16267485762415 252.209517756016 L 371 248 L 359.16267485762415 243.790482243984" stroke-miterlimit="10"/></g><g transform="translate(-70,-27) scale(1,1)"><g><path fill="none" stroke="none"/><text fill="#000000" stroke="none" font-family="Arial" font-size="13px" font-style="normal" font-weight="normal" text-decoration="none" x="407.74365234375" y="241.5">0..*</text></g></g><g transform="translate(-70,-27) scale(1,1)"><g><path fill="none" stroke="none"/><text fill="#000000" stroke="none" font-family="Arial" font-size="13px" font-style="normal" font-weight="normal" text-decoration="none" x="359.74365234375" y="241.5">0..*</text></g></g><g transform="translate(-70,-27) scale(1,1)"><path fill="none" stroke="#000000" d="M 736 248 L 601 248" stroke-miterlimit="10"/></g><g transform="translate(-70,-27) scale(1,1)"><path fill="#000000" stroke="none" d="M 611.1626748576241 243.790482243984 L 601 248 L 611.1626748576241 252.209517756016 L 623 248"/></g><g transform="translate(-70,-27) scale(1,1)"><path fill="none" stroke="#000000" d="M 611.1626748576241 243.790482243984 L 601 248 L 611.1626748576241 252.209517756016 L 623 248 L 611.1626748576241 243.790482243984" stroke-miterlimit="10"/></g><g transform="translate(-70,-27) scale(1,1)"><g><path fill="none" stroke="none"/><text fill="#000000" stroke="none" font-family="Arial" font-size="13px" font-style="normal" font-weight="normal" text-decoration="none" x="703.74365234375" y="241.5">0..*</text></g></g><g transform="translate(-70,-27) scale(1,1)"><g><path fill="none" stroke="none"/><text fill="#000000" stroke="none" font-family="Arial" font-size="13px" font-style="normal" font-weight="normal" text-decoration="none" x="611.74365234375" y="241.5">0..*</text></g></g><g transform="translate(-70,-27) scale(1,1)"><rect fill="#C0C0C0" stroke="none" x="447" y="47" width="153.51708984375" height="145" opacity="0.2"/></g><g transform="translate(-70,-27) scale(1,1)"><rect fill="#ffffff" stroke="none" x="440" y="40" width="153.51708984375" height="145"/></g><g transform="translate(-70,-27) scale(1,1)"><path fill="none" stroke="#000000" d="M 440 40 L 593.51708984375 40 L 593.51708984375 185 L 440 185 L 440 40 Z Z" stroke-miterlimit="10"/></g><g transform="translate(-70,-27) scale(1,1)"><path fill="none" stroke="#000000" d="M 440 65 L 593.51708984375 65" stroke-miterlimit="10"/></g><g transform="translate(-70,-27) scale(1,1)"><path fill="none" stroke="#000000" d="M 440 133 L 593.51708984375 133" stroke-miterlimit="10"/></g><g transform="translate(-70,-27) scale(1,1)"><g><path fill="none" stroke="none"/><text fill="#000000" stroke="none" font-family="Arial" font-size="13px" font-style="normal" font-weight="bold" text-decoration="none" x="497.963134765625" y="59.5">Phone</text></g></g><g transform="translate(-70,-27) scale(1,1)"><g><path fill="none" stroke="none"/><text fill="#000000" stroke="none" font-family="Arial" font-size="13px" font-style="normal" font-weight="normal" text-decoration="none" x="445" y="82.5">+number: str = None</text></g></g><g transform="translate(-70,-27) scale(1,1)"><g><path fill="none" stroke="none"/><text fill="#000000" stroke="none" font-family="Arial" font-size="13px" font-style="normal" font-weight="normal" text-decoration="none" x="445" y="97.5">+deviceType: str = None</text></g></g><g transform="translate(-70,-27) scale(1,1)"><g><path fill="none" stroke="none"/><text fill="#000000" stroke="none" font-family="Arial" font-size="13px" font-style="normal" font-weight="normal" text-decoration="none" x="445" y="112.5">+country: str = None</text></g></g><g transform="translate(-70,-27) scale(1,1)"><g><path fill="none" stroke="none"/><text fill="#000000" stroke="none" font-family="Arial" font-size="13px" font-style="normal" font-weight="normal" text-decoration="none" x="445" y="127.5">+location: str = None</text></g></g><g transform="translate(-70,-27) scale(1,1)"><g><path fill="none" stroke="none"/><text fill="#000000" stroke="none" font-family="Arial" font-size="13px" font-style="normal" font-weight="normal" text-decoration="none" x="445" y="150.5">+__init__(number: str)</text></g></g><g transform="translate(-70,-27) scale(1,1)"><g><path fill="none" stroke="none"/><text fill="#000000" stroke="none" font-family="Arial" font-size="13px" font-style="normal" font-weight="normal" text-decoration="none" x="445" y="165.5">+__repr__()</text></g></g><g transform="translate(-70,-27) scale(1,1)"><g><path fill="none" stroke="none"/><text fill="#000000" stroke="none" font-family="Arial" font-size="13px" font-style="normal" font-weight="normal" text-decoration="none" x="445" y="180.5">+findDetails()</text></g></g><g transform="translate(-70,-27) scale(1,1)"><path fill="none" stroke="#000000" d="M 440 56 L 216 56 L 216 232" stroke-miterlimit="10"/></g><g transform="translate(-70,-27) scale(1,1)"><path fill="#000000" stroke="none" d="M 211.790482243984 221.83732514237585 L 216 232 L 220.209517756016 221.83732514237585 L 216 210"/></g><g transform="translate(-70,-27) scale(1,1)"><path fill="none" stroke="#000000" d="M 211.790482243984 221.83732514237585 L 216 232 L 220.209517756016 221.83732514237585 L 216 210 L 211.790482243984 221.83732514237585" stroke-miterlimit="10"/></g><g transform="translate(-70,-27) scale(1,1)"><g><path fill="none" stroke="none"/><text fill="#000000" stroke="none" font-family="Arial" font-size="13px" font-style="normal" font-weight="normal" text-decoration="none" x="407.74365234375" y="49.5">0..*</text></g></g><g transform="translate(-70,-27) scale(1,1)"><g><path fill="none" stroke="none"/><text fill="#000000" stroke="none" font-family="Arial" font-size="13px" font-style="normal" font-weight="normal" text-decoration="none" x="192.74365234375" y="216.5">0..*</text></g></g><g transform="translate(-70,-27) scale(1,1)"><rect fill="#C0C0C0" stroke="none" x="439" y="423" width="653.185546875" height="220" opacity="0.2"/></g><g transform="translate(-70,-27) scale(1,1)"><rect fill="#ffffff" stroke="none" x="432" y="416" width="653.185546875" height="220"/></g><g transform="translate(-70,-27) scale(1,1)"><path fill="none" stroke="#000000" d="M 432 416 L 1085.185546875 416 L 1085.185546875 636 L 432 636 L 432 416 Z Z" stroke-miterlimit="10"/></g><g transform="translate(-70,-27) scale(1,1)"><path fill="none" stroke="#000000" d="M 432 441 L 1085.185546875 441" stroke-miterlimit="10"/></g><g transform="translate(-70,-27) scale(1,1)"><path fill="none" stroke="#000000" d="M 432 554 L 1085.185546875 554" stroke-miterlimit="10"/></g><g transform="translate(-70,-27) scale(1,1)"><g><path fill="none" stroke="none"/><text fill="#000000" stroke="none" font-family="Arial" font-size="13px" font-style="normal" font-weight="bold" text-decoration="none" x="735.11279296875" y="435.5">Website</text></g></g><g transform="translate(-70,-27) scale(1,1)"><g><path fill="none" stroke="none"/><text fill="#000000" stroke="none" font-family="Arial" font-size="13px" font-style="normal" font-weight="normal" text-decoration="none" x="437" y="458.5">+name: str = None</text></g></g><g transform="translate(-70,-27) scale(1,1)"><g><path fill="none" stroke="none"/><text fill="#000000" stroke="none" font-family="Arial" font-size="13px" font-style="normal" font-weight="normal" text-decoration="none" x="437" y="473.5">+category: str = None</text></g></g><g transform="translate(-70,-27) scale(1,1)"><g><path fill="none" stroke="none"/><text fill="#000000" stroke="none" font-family="Arial" font-size="13px" font-style="normal" font-weight="normal" text-decoration="none" x="437" y="488.5">+url: str = None</text></g></g><g transform="translate(-70,-27) scale(1,1)"><g><path fill="none" stroke="none"/><text fill="#000000" stroke="none" font-family="Arial" font-size="13px" font-style="normal" font-weight="normal" text-decoration="none" x="437" y="503.5">+qrcode: Photo = None</text></g></g><g transform="translate(-70,-27) scale(1,1)"><g><path fill="none" stroke="none"/><text fill="#000000" stroke="none" font-family="Arial" font-size="13px" font-style="normal" font-weight="normal" text-decoration="none" x="437" y="518.5">+username: str = None</text></g></g><g transform="translate(-70,-27) scale(1,1)"><g><path fill="none" stroke="none"/><text fill="#000000" stroke="none" font-family="Arial" font-size="13px" font-style="normal" font-weight="normal" text-decoration="none" x="437" y="533.5">+images: list = []</text></g></g><g transform="translate(-70,-27) scale(1,1)"><g><path fill="none" stroke="none"/><text fill="#000000" stroke="none" font-family="Arial" font-size="13px" font-style="normal" font-weight="normal" text-decoration="none" x="437" y="548.5">+imagesPath: str = None</text></g></g><g transform="translate(-70,-27) scale(1,1)"><g><path fill="none" stroke="none"/><text fill="#000000" stroke="none" font-family="Arial" font-size="13px" font-style="normal" font-weight="normal" text-decoration="none" x="437" y="571.5">+__init__(name: str, category: str = None, url: str = None, username: str = None, defaultExtraction: bool = True)</text></g></g><g transform="translate(-70,-27) scale(1,1)"><g><path fill="none" stroke="none"/><text fill="#000000" stroke="none" font-family="Arial" font-size="13px" font-style="normal" font-weight="normal" text-decoration="none" x="437" y="586.5">+__repr__()</text></g></g><g transform="translate(-70,-27) scale(1,1)"><g><path fill="none" stroke="none"/><text fill="#000000" stroke="none" font-family="Arial" font-size="13px" font-style="normal" font-weight="normal" text-decoration="none" x="437" y="601.5">+getPage()</text></g></g><g transform="translate(-70,-27) scale(1,1)"><g><path fill="none" stroke="none"/><text fill="#000000" stroke="none" font-family="Arial" font-size="13px" font-style="normal" font-weight="normal" text-decoration="none" x="437" y="616.5">+extractData()</text></g></g><g transform="translate(-70,-27) scale(1,1)"><g><path fill="none" stroke="none"/><text fill="#000000" stroke="none" font-family="Arial" font-size="13px" font-style="normal" font-weight="normal" text-decoration="none" x="437" y="631.5">+extractImages(page: object)</text></g></g><g transform="translate(-70,-27) scale(1,1)"><path fill="none" stroke="#000000" d="M 432 437 L 349 437" stroke-miterlimit="10"/></g><g transform="translate(-70,-27) scale(1,1)"><path fill="#000000" stroke="none" d="M 359.16267485762415 432.790482243984 L 349 437 L 359.16267485762415 441.209517756016 L 371 437"/></g><g transform="translate(-70,-27) scale(1,1)"><path fill="none" stroke="#000000" d="M 359.16267485762415 432.790482243984 L 349 437 L 359.16267485762415 441.209517756016 L 371 437 L 359.16267485762415 432.790482243984" stroke-miterlimit="10"/></g><g transform="translate(-70,-27) scale(1,1)"><g><path fill="none" stroke="none"/><text fill="#000000" stroke="none" font-family="Arial" font-size="13px" font-style="normal" font-weight="normal" text-decoration="none" x="399.74365234375" y="430.5">0..*</text></g></g><g transform="translate(-70,-27) scale(1,1)"><g><path fill="none" stroke="none"/><text fill="#000000" stroke="none" font-family="Arial" font-size="13px" font-style="normal" font-weight="normal" text-decoration="none" x="359.74365234375" y="430.5">0..*</text></g></g><g transform="translate(-70,-27) scale(1,1)"><rect fill="#C0C0C0" stroke="none" x="599" y="759" width="328.744140625" height="265" opacity="0.2"/></g><g transform="translate(-70,-27) scale(1,1)"><rect fill="#ffffff" stroke="none" x="592" y="752" width="328.744140625" height="265"/></g><g transform="translate(-70,-27) scale(1,1)"><path fill="none" stroke="#000000" d="M 592 752 L 920.744140625 752 L 920.744140625 1017 L 592 1017 L 592 752 Z Z" stroke-miterlimit="10"/></g><g transform="translate(-70,-27) scale(1,1)"><path fill="none" stroke="#000000" d="M 592 777 L 920.744140625 777" stroke-miterlimit="10"/></g><g transform="translate(-70,-27) scale(1,1)"><path fill="none" stroke="#000000" d="M 592 935 L 920.744140625 935" stroke-miterlimit="10"/></g><g transform="translate(-70,-27) scale(1,1)"><g><path fill="none" stroke="none"/><text fill="#000000" stroke="none" font-family="Arial" font-size="13px" font-style="normal" font-weight="bold" text-decoration="none" x="727.47119140625" y="771.5">Instagram</text></g></g><g transform="translate(-70,-27) scale(1,1)"><g><path fill="none" stroke="none"/><text fill="#000000" stroke="none" font-family="Arial" font-size="13px" font-style="normal" font-weight="normal" text-decoration="none" x="597" y="794.5">+name: str = None</text></g></g><g transform="translate(-70,-27) scale(1,1)"><g><path fill="none" stroke="none"/><text fill="#000000" stroke="none" font-family="Arial" font-size="13px" font-style="normal" font-weight="normal" text-decoration="none" x="597" y="809.5">+userId: str = None</text></g></g><g transform="translate(-70,-27) scale(1,1)"><g><path fill="none" stroke="none"/><text fill="#000000" stroke="none" font-family="Arial" font-size="13px" font-style="normal" font-weight="normal" text-decoration="none" x="597" y="824.5">+avatar: Photo = None</text></g></g><g transform="translate(-70,-27) scale(1,1)"><g><path fill="none" stroke="none"/><text fill="#000000" stroke="none" font-family="Arial" font-size="13px" font-style="normal" font-weight="normal" text-decoration="none" x="597" y="839.5">+isPrivate: bool = None</text></g></g><g transform="translate(-70,-27) scale(1,1)"><g><path fill="none" stroke="none"/><text fill="#000000" stroke="none" font-family="Arial" font-size="13px" font-style="normal" font-weight="normal" text-decoration="none" x="597" y="854.5">+followersCount: int = None</text></g></g><g transform="translate(-70,-27) scale(1,1)"><g><path fill="none" stroke="none"/><text fill="#000000" stroke="none" font-family="Arial" font-size="13px" font-style="normal" font-weight="normal" text-decoration="none" x="597" y="869.5">+friendsCount: int = None</text></g></g><g transform="translate(-70,-27) scale(1,1)"><g><path fill="none" stroke="none"/><text fill="#000000" stroke="none" font-family="Arial" font-size="13px" font-style="normal" font-weight="normal" text-decoration="none" x="597" y="884.5">+postsCount: int = None</text></g></g><g transform="translate(-70,-27) scale(1,1)"><g><path fill="none" stroke="none"/><text fill="#000000" stroke="none" font-family="Arial" font-size="13px" font-style="normal" font-weight="normal" text-decoration="none" x="597" y="899.5">+description: str = None</text></g></g><g transform="translate(-70,-27) scale(1,1)"><g><path fill="none" stroke="none"/><text fill="#000000" stroke="none" font-family="Arial" font-size="13px" font-style="normal" font-weight="normal" text-decoration="none" x="597" y="914.5">+email: Email = None</text></g></g><g transform="translate(-70,-27) scale(1,1)"><g><path fill="none" stroke="none"/><text fill="#000000" stroke="none" font-family="Arial" font-size="13px" font-style="normal" font-weight="normal" text-decoration="none" x="597" y="929.5">+phone: Phone = None</text></g></g><g transform="translate(-70,-27) scale(1,1)"><g><path fill="none" stroke="none"/><text fill="#000000" stroke="none" font-family="Arial" font-size="13px" font-style="normal" font-weight="normal" text-decoration="none" x="597" y="952.5">+__init__(username: str = None, url: str = None)</text></g></g><g transform="translate(-70,-27) scale(1,1)"><g><path fill="none" stroke="none"/><text fill="#000000" stroke="none" font-family="Arial" font-size="13px" font-style="normal" font-weight="normal" text-decoration="none" x="597" y="967.5">+__repr__()</text></g></g><g transform="translate(-70,-27) scale(1,1)"><g><path fill="none" stroke="none"/><text fill="#000000" stroke="none" font-family="Arial" font-size="13px" font-style="normal" font-weight="normal" text-decoration="none" x="597" y="982.5">+extractData()</text></g></g><g transform="translate(-70,-27) scale(1,1)"><g><path fill="none" stroke="none"/><text fill="#000000" stroke="none" font-family="Arial" font-size="13px" font-style="normal" font-weight="normal" text-decoration="none" x="597" y="997.5">+extractImages(data: dict)</text></g></g><g transform="translate(-70,-27) scale(1,1)"><g><path fill="none" stroke="none"/><text fill="#000000" stroke="none" font-family="Arial" font-size="13px" font-style="normal" font-weight="normal" text-decoration="none" x="597" y="1012.5">+extractText(data: dict)</text></g></g><g transform="translate(-70,-27) scale(1,1)"><path fill="none" stroke="#000000" d="M 752 752 L 752 636" stroke-miterlimit="10"/></g><g transform="translate(-70,-27) scale(1,1)"><path fill="#FFFFFF" stroke="none" d="M 760.419035512032 656.3253497152483 L 752 636 L 743.580964487968 656.3253497152483"/></g><g transform="translate(-70,-27) scale(1,1)"><path fill="none" stroke="#000000" d="M 760.419035512032 656.3253497152483 L 752 636 L 743.580964487968 656.3253497152483 L 760.419035512032 656.3253497152483" stroke-miterlimit="10"/></g><g transform="translate(-70,-27) scale(1,1)"><rect fill="#C0C0C0" stroke="none" x="991" y="759" width="285.38330078125" height="250" opacity="0.2"/></g><g transform="translate(-70,-27) scale(1,1)"><rect fill="#ffffff" stroke="none" x="984" y="752" width="285.38330078125" height="250"/></g><g transform="translate(-70,-27) scale(1,1)"><path fill="none" stroke="#000000" d="M 984 752 L 1269.38330078125 752 L 1269.38330078125 1002 L 984 1002 L 984 752 Z Z" stroke-miterlimit="10"/></g><g transform="translate(-70,-27) scale(1,1)"><path fill="none" stroke="#000000" d="M 984 777 L 1269.38330078125 777" stroke-miterlimit="10"/></g><g transform="translate(-70,-27) scale(1,1)"><path fill="none" stroke="#000000" d="M 984 920 L 1269.38330078125 920" stroke-miterlimit="10"/></g><g transform="translate(-70,-27) scale(1,1)"><g><path fill="none" stroke="none"/><text fill="#000000" stroke="none" font-family="Arial" font-size="13px" font-style="normal" font-weight="bold" text-decoration="none" x="1107.191650390625" y="771.5">Twitter</text></g></g><g transform="translate(-70,-27) scale(1,1)"><g><path fill="none" stroke="none"/><text fill="#000000" stroke="none" font-family="Arial" font-size="13px" font-style="normal" font-weight="normal" text-decoration="none" x="989" y="794.5">+userId: str = None</text></g></g><g transform="translate(-70,-27) scale(1,1)"><g><path fill="none" stroke="none"/><text fill="#000000" stroke="none" font-family="Arial" font-size="13px" font-style="normal" font-weight="normal" text-decoration="none" x="989" y="809.5">+isPrivate: bool = None</text></g></g><g transform="translate(-70,-27) scale(1,1)"><g><path fill="none" stroke="none"/><text fill="#000000" stroke="none" font-family="Arial" font-size="13px" font-style="normal" font-weight="normal" text-decoration="none" x="989" y="824.5">+tweetsPath: str = None</text></g></g><g transform="translate(-70,-27) scale(1,1)"><g><path fill="none" stroke="none"/><text fill="#000000" stroke="none" font-family="Arial" font-size="13px" font-style="normal" font-weight="normal" text-decoration="none" x="989" y="839.5">+tweetsChart: Photo = None</text></g></g><g transform="translate(-70,-27) scale(1,1)"><g><path fill="none" stroke="none"/><text fill="#000000" stroke="none" font-family="Arial" font-size="13px" font-style="normal" font-weight="normal" text-decoration="none" x="989" y="854.5">+repliesChart: Photo = None</text></g></g><g transform="translate(-70,-27) scale(1,1)"><g><path fill="none" stroke="none"/><text fill="#000000" stroke="none" font-family="Arial" font-size="13px" font-style="normal" font-weight="normal" text-decoration="none" x="989" y="869.5">+retweetsChart: Photo = None</text></g></g><g transform="translate(-70,-27) scale(1,1)"><g><path fill="none" stroke="none"/><text fill="#000000" stroke="none" font-family="Arial" font-size="13px" font-style="normal" font-weight="normal" text-decoration="none" x="989" y="884.5">+likesChart: Photo = None</text></g></g><g transform="translate(-70,-27) scale(1,1)"><g><path fill="none" stroke="none"/><text fill="#000000" stroke="none" font-family="Arial" font-size="13px" font-style="normal" font-weight="normal" text-decoration="none" x="989" y="899.5">+hoursChart: Photo = None</text></g></g><g transform="translate(-70,-27) scale(1,1)"><g><path fill="none" stroke="none"/><text fill="#000000" stroke="none" font-family="Arial" font-size="13px" font-style="normal" font-weight="normal" text-decoration="none" x="989" y="914.5">+wordcloud: Photo = None</text></g></g><g transform="translate(-70,-27) scale(1,1)"><g><path fill="none" stroke="none"/><text fill="#000000" stroke="none" font-family="Arial" font-size="13px" font-style="normal" font-weight="normal" text-decoration="none" x="989" y="937.5">+__init__(username: str = None)</text></g></g><g transform="translate(-70,-27) scale(1,1)"><g><path fill="none" stroke="none"/><text fill="#000000" stroke="none" font-family="Arial" font-size="13px" font-style="normal" font-weight="normal" text-decoration="none" x="989" y="952.5">+__repr__()</text></g></g><g transform="translate(-70,-27) scale(1,1)"><g><path fill="none" stroke="none"/><text fill="#000000" stroke="none" font-family="Arial" font-size="13px" font-style="normal" font-weight="normal" text-decoration="none" x="989" y="967.5">+extractData()</text></g></g><g transform="translate(-70,-27) scale(1,1)"><g><path fill="none" stroke="none"/><text fill="#000000" stroke="none" font-family="Arial" font-size="13px" font-style="normal" font-weight="normal" text-decoration="none" x="989" y="982.5">+extractText()</text></g></g><g transform="translate(-70,-27) scale(1,1)"><g><path fill="none" stroke="none"/><text fill="#000000" stroke="none" font-family="Arial" font-size="13px" font-style="normal" font-weight="normal" text-decoration="none" x="989" y="997.5">+createCharts()</text></g></g><g transform="translate(-70,-27) scale(1,1)"><rect fill="#C0C0C0" stroke="none" x="343" y="759" width="200" height="130" opacity="0.2"/></g><g transform="translate(-70,-27) scale(1,1)"><rect fill="#ffffff" stroke="none" x="336" y="752" width="200" height="130"/></g><g transform="translate(-70,-27) scale(1,1)"><path fill="none" stroke="#000000" d="M 336 752 L 536 752 L 536 882 L 336 882 L 336 752 Z Z" stroke-miterlimit="10"/></g><g transform="translate(-70,-27) scale(1,1)"><path fill="none" stroke="#000000" d="M 336 777 L 536 777" stroke-miterlimit="10"/></g><g transform="translate(-70,-27) scale(1,1)"><path fill="none" stroke="#000000" d="M 336 800 L 536 800" stroke-miterlimit="10"/></g><g transform="translate(-70,-27) scale(1,1)"><g><path fill="none" stroke="none"/><text fill="#000000" stroke="none" font-family="Arial" font-size="13px" font-style="normal" font-weight="bold" text-decoration="none" x="407.82275390625" y="771.5">Wikipedia</text></g></g><g transform="translate(-70,-27) scale(1,1)"><g><path fill="none" stroke="none"/><text fill="#000000" stroke="none" font-family="Arial" font-size="13px" font-style="normal" font-weight="normal" text-decoration="none" x="341" y="794.5">+text: str = None</text></g></g><g transform="translate(-70,-27) scale(1,1)"><g><path fill="none" stroke="none"/><text fill="#000000" stroke="none" font-family="Arial" font-size="13px" font-style="normal" font-weight="normal" text-decoration="none" x="341" y="817.5">+__init__(username: str = None)</text></g></g><g transform="translate(-70,-27) scale(1,1)"><g><path fill="none" stroke="none"/><text fill="#000000" stroke="none" font-family="Arial" font-size="13px" font-style="normal" font-weight="normal" text-decoration="none" x="341" y="832.5">+__repr__()</text></g></g><g transform="translate(-70,-27) scale(1,1)"><g><path fill="none" stroke="none"/><text fill="#000000" stroke="none" font-family="Arial" font-size="13px" font-style="normal" font-weight="normal" text-decoration="none" x="341" y="847.5">+extractData()</text></g></g><g transform="translate(-70,-27) scale(1,1)"><g><path fill="none" stroke="none"/><text fill="#000000" stroke="none" font-family="Arial" font-size="13px" font-style="normal" font-weight="normal" text-decoration="none" x="341" y="862.5">+extractText(page: object)</text></g></g><g transform="translate(-70,-27) scale(1,1)"><g><path fill="none" stroke="none"/><text fill="#000000" stroke="none" font-family="Arial" font-size="13px" font-style="normal" font-weight="normal" text-decoration="none" x="341" y="877.5">+extractImages(page: object)</text></g></g><g transform="translate(-70,-27) scale(1,1)"><path fill="none" stroke="#000000" d="M 440 752 L 440 680 L 752 680 L 752 636" stroke-miterlimit="10"/></g><g transform="translate(-70,-27) scale(1,1)"><path fill="#FFFFFF" stroke="none" d="M 760.419035512032 656.3253497152483 L 752 636 L 743.580964487968 656.3253497152483"/></g><g transform="translate(-70,-27) scale(1,1)"><path fill="none" stroke="#000000" d="M 760.419035512032 656.3253497152483 L 752 636 L 743.580964487968 656.3253497152483 L 760.419035512032 656.3253497152483" stroke-miterlimit="10"/></g><g transform="translate(-70,-27) scale(1,1)"><path fill="none" stroke="#000000" d="M 1136 752 L 1136 680 L 752 680 L 752 636" stroke-miterlimit="10"/></g><g transform="translate(-70,-27) scale(1,1)"><path fill="#FFFFFF" stroke="none" d="M 760.419035512032 656.3253497152483 L 752 636 L 743.580964487968 656.3253497152483"/></g><g transform="translate(-70,-27) scale(1,1)"><path fill="none" stroke="#000000" d="M 760.419035512032 656.3253497152483 L 752 636 L 743.580964487968 656.3253497152483 L 760.419035512032 656.3253497152483" stroke-miterlimit="10"/></g><g transform="translate(-70,-27) scale(1,1)"><rect fill="#C0C0C0" stroke="none" x="1199" y="415" width="197.95703125" height="250" opacity="0.2"/></g><g transform="translate(-70,-27) scale(1,1)"><rect fill="#ffffff" stroke="none" x="1192" y="408" width="197.95703125" height="250"/></g><g transform="translate(-70,-27) scale(1,1)"><path fill="none" stroke="#000000" d="M 1192 408 L 1389.95703125 408 L 1389.95703125 658 L 1192 658 L 1192 408 Z Z" stroke-miterlimit="10"/></g><g transform="translate(-70,-27) scale(1,1)"><path fill="none" stroke="#000000" d="M 1192 433 L 1389.95703125 433" stroke-miterlimit="10"/></g><g transform="translate(-70,-27) scale(1,1)"><path fill="none" stroke="#000000" d="M 1192 606 L 1389.95703125 606" stroke-miterlimit="10"/></g><g transform="translate(-70,-27) scale(1,1)"><g><path fill="none" stroke="none"/><text fill="#000000" stroke="none" font-family="Arial" font-size="13px" font-style="normal" font-weight="bold" text-decoration="none" x="1273.9921875" y="427.5">Photo</text></g></g><g transform="translate(-70,-27) scale(1,1)"><g><path fill="none" stroke="none"/><text fill="#000000" stroke="none" font-family="Arial" font-size="13px" font-style="normal" font-weight="normal" text-decoration="none" x="1197" y="450.5">+URL: str = None</text></g></g><g transform="translate(-70,-27) scale(1,1)"><g><path fill="none" stroke="none"/><text fill="#000000" stroke="none" font-family="Arial" font-size="13px" font-style="normal" font-weight="normal" text-decoration="none" x="1197" y="465.5">+name: str = None</text></g></g><g transform="translate(-70,-27) scale(1,1)"><g><path fill="none" stroke="none"/><text fill="#000000" stroke="none" font-family="Arial" font-size="13px" font-style="normal" font-weight="normal" text-decoration="none" x="1197" y="480.5">+date: datetime = None</text></g></g><g transform="translate(-70,-27) scale(1,1)"><g><path fill="none" stroke="none"/><text fill="#000000" stroke="none" font-family="Arial" font-size="13px" font-style="normal" font-weight="normal" text-decoration="none" x="1197" y="495.5">+location: str = None</text></g></g><g transform="translate(-70,-27) scale(1,1)"><g><path fill="none" stroke="none"/><text fill="#000000" stroke="none" font-family="Arial" font-size="13px" font-style="normal" font-weight="normal" text-decoration="none" x="1197" y="510.5">+path: str = None</text></g></g><g transform="translate(-70,-27) scale(1,1)"><g><path fill="none" stroke="none"/><text fill="#000000" stroke="none" font-family="Arial" font-size="13px" font-style="normal" font-weight="normal" text-decoration="none" x="1197" y="525.5">+fullPath: str = None</text></g></g><g transform="translate(-70,-27) scale(1,1)"><g><path fill="none" stroke="none"/><text fill="#000000" stroke="none" font-family="Arial" font-size="13px" font-style="normal" font-weight="normal" text-decoration="none" x="1197" y="540.5">+protocol: str = None</text></g></g><g transform="translate(-70,-27) scale(1,1)"><g><path fill="none" stroke="none"/><text fill="#000000" stroke="none" font-family="Arial" font-size="13px" font-style="normal" font-weight="normal" text-decoration="none" x="1197" y="555.5">+contents: list = []</text></g></g><g transform="translate(-70,-27) scale(1,1)"><g><path fill="none" stroke="none"/><text fill="#000000" stroke="none" font-family="Arial" font-size="13px" font-style="normal" font-weight="normal" text-decoration="none" x="1197" y="570.5">+isDownloaded: bool = False</text></g></g><g transform="translate(-70,-27) scale(1,1)"><g><path fill="none" stroke="none"/><text fill="#000000" stroke="none" font-family="Arial" font-size="13px" font-style="normal" font-weight="normal" text-decoration="none" x="1197" y="585.5">+width: int = None</text></g></g><g transform="translate(-70,-27) scale(1,1)"><g><path fill="none" stroke="none"/><text fill="#000000" stroke="none" font-family="Arial" font-size="13px" font-style="normal" font-weight="normal" text-decoration="none" x="1197" y="600.5">+height: int = None</text></g></g><g transform="translate(-70,-27) scale(1,1)"><g><path fill="none" stroke="none"/><text fill="#000000" stroke="none" font-family="Arial" font-size="13px" font-style="normal" font-weight="normal" text-decoration="none" x="1197" y="623.5">+__init__(**kwargs: dict)</text></g></g><g transform="translate(-70,-27) scale(1,1)"><g><path fill="none" stroke="none"/><text fill="#000000" stroke="none" font-family="Arial" font-size="13px" font-style="normal" font-weight="normal" text-decoration="none" x="1197" y="638.5">+__repr__()</text></g></g><g transform="translate(-70,-27) scale(1,1)"><g><path fill="none" stroke="none"/><text fill="#000000" stroke="none" font-family="Arial" font-size="13px" font-style="normal" font-weight="normal" text-decoration="none" x="1197" y="653.5">+download()</text></g></g><g transform="translate(-70,-27) scale(1,1)"><path fill="none" stroke="#000000" d="M 1192 424 L 1085 424" stroke-miterlimit="10"/></g><g transform="translate(-70,-27) scale(1,1)"><path fill="#000000" stroke="none" d="M 1095.162674857624 419.790482243984 L 1085 424 L 1095.162674857624 428.209517756016 L 1107 424"/></g><g transform="translate(-70,-27) scale(1,1)"><path fill="none" stroke="#000000" d="M 1095.162674857624 419.790482243984 L 1085 424 L 1095.162674857624 428.209517756016 L 1107 424 L 1095.162674857624 419.790482243984" stroke-miterlimit="10"/></g><g transform="translate(-70,-27) scale(1,1)"><g><path fill="none" stroke="none"/><text fill="#000000" stroke="none" font-family="Arial" font-size="13px" font-style="normal" font-weight="normal" text-decoration="none" x="1159.74365234375" y="417.5">0..*</text></g></g><g transform="translate(-70,-27) scale(1,1)"><g><path fill="none" stroke="none"/><text fill="#000000" stroke="none" font-family="Arial" font-size="13px" font-style="normal" font-weight="normal" text-decoration="none" x="1095.74365234375" y="417.5">0..*</text></g></g></g></svg>