<svg version="1.1" xmlns="http://www.w3.org/2000/svg" xmlns:xlink="http://www.w3.org/1999/xlink" width="1020" height="452"><defs/><g><g transform="translate(-294,-158) scale(1,1)"><path fill="#ffffff" stroke="none" d="M 320.40935031960225 345.68 C 320.40935031960225 340.886167936 324.29519264454774 337 329.088623046875 337 C 333.88205344920226 337 337.76789577414775 340.886167936 337.76789577414775 345.68 C 337.76789577414775 350.473832064 333.88205344920226 354.36 329.088623046875 354.36 C 324.29519264454774 354.36 320.40935031960225 350.473832064 320.40935031960225 345.68 Z"/></g><g transform="translate(-294,-158) scale(1,1)"><path fill="none" stroke="#000000" d="M 320.40935031960225 345.68 C 320.40935031960225 340.886167936 324.29519264454774 337 329.088623046875 337 C 333.88205344920226 337 337.76789577414775 340.886167936 337.76789577414775 345.68 C 337.76789577414775 350.473832064 333.88205344920226 354.36 329.088623046875 354.36 C 324.29519264454774 354.36 320.40935031960225 350.473832064 320.40935031960225 345.68 Z" stroke-miterlimit="10"/></g><g transform="translate(-294,-158) scale(1,1)"><path fill="none" stroke="#000000" d="M 329.088623046875 354.36 L 329.088623046875 371.64" stroke-miterlimit="10"/></g><g transform="translate(-294,-158) scale(1,1)"><path fill="none" stroke="#000000" d="M 319.89880486505683 360.84 L 338.27844122869317 360.84" stroke-miterlimit="10"/></g><g transform="translate(-294,-158) scale(1,1)"><path fill="none" stroke="#000000" d="M 329.088623046875 371.64 L 316.32498668323865 389" stroke-miterlimit="10"/></g><g transform="translate(-294,-158) scale(1,1)"><path fill="none" stroke="#000000" d="M 329.088623046875 371.64 L 341.85225941051135 389" stroke-miterlimit="10"/></g><g transform="translate(-294,-158) scale(1,1)"><g><path fill="none" stroke="none"/><text fill="#000000" stroke="none" font-family="Arial" font-size="13px" font-style="normal" font-weight="bold" text-decoration="none" x="315.364990234375" y="409.5">User</text></g></g><g transform="translate(-294,-158) scale(1,1)"><path fill="#C0C0C0" stroke="none" d="M 455 215 C 455 192.90860800000002 496.1897984 175 547 175 C 597.8102016 175 639 192.90860800000002 639 215 C 639 237.09139199999998 597.8102016 255 547 255 C 496.1897984 255 455 237.09139199999998 455 215 Z" opacity="0.2"/></g><g transform="translate(-294,-158) scale(1,1)"><path fill="#ffffff" stroke="none" d="M 448 208 C 448 185.90860800000002 489.1897984 168 540 168 C 590.8102016 168 632 185.90860800000002 632 208 C 632 230.09139199999998 590.8102016 248 540 248 C 489.1897984 248 448 230.09139199999998 448 208 Z"/></g><g transform="translate(-294,-158) scale(1,1)"><path fill="none" stroke="#000000" d="M 448 208 C 448 185.90860800000002 489.1897984 168 540 168 C 590.8102016 168 632 185.90860800000002 632 208 C 632 230.09139199999998 590.8102016 248 540 248 C 489.1897984 248 448 230.09139199999998 448 208 Z" stroke-miterlimit="10"/></g><g transform="translate(-294,-158) scale(1,1)"><g><path fill="none" stroke="none"/><text fill="#000000" stroke="none" font-family="Arial" font-size="13px" font-style="normal" font-weight="bold" text-decoration="none" x="498.0927734375" y="215">Command line</text></g></g><g transform="translate(-294,-158) scale(1,1)"><path fill="#C0C0C0" stroke="none" d="M 479 392 C 479 364.9380448 569.8861856 343 682 343 C 794.1138144 343 885 364.9380448 885 392 C 885 419.0619552 794.1138144 441 682 441 C 569.8861856 441 479 419.0619552 479 392 Z" opacity="0.2"/></g><g transform="translate(-294,-158) scale(1,1)"><path fill="#ffffff" stroke="none" d="M 472 385 C 472 357.9380448 562.8861856 336 675 336 C 787.1138144 336 878 357.9380448 878 385 C 878 412.0619552 787.1138144 434 675 434 C 562.8861856 434 472 412.0619552 472 385 Z"/></g><g transform="translate(-294,-158) scale(1,1)"><path fill="none" stroke="#000000" d="M 472 385 C 472 357.9380448 562.8861856 336 675 336 C 787.1138144 336 878 357.9380448 878 385 C 878 412.0619552 787.1138144 434 675 434 C 562.8861856 434 472 412.0619552 472 385 Z" stroke-miterlimit="10"/></g><g transform="translate(-294,-158) scale(1,1)"><g><path fill="none" stroke="none"/><text fill="#000000" stroke="none" font-family="Arial" font-size="13px" font-style="normal" font-weight="bold" text-decoration="none" x="594.629150390625" y="392">Insert target's personal data</text></g></g><g transform="translate(-294,-158) scale(1,1)"><path fill="#C0C0C0" stroke="none" d="M 1063 392 C 1063 360.5197664 1102.3989376 335 1151 335 C 1199.6010624 335 1239 360.5197664 1239 392 C 1239 423.4802336 1199.6010624 449 1151 449 C 1102.3989376 449 1063 423.4802336 1063 392 Z" opacity="0.2"/></g><g transform="translate(-294,-158) scale(1,1)"><path fill="#ffffff" stroke="none" d="M 1056 385 C 1056 353.5197664 1095.3989376 328 1144 328 C 1192.6010624 328 1232 353.5197664 1232 385 C 1232 416.4802336 1192.6010624 442 1144 442 C 1095.3989376 442 1056 416.4802336 1056 385 Z"/></g><g transform="translate(-294,-158) scale(1,1)"><path fill="none" stroke="#000000" d="M 1056 385 C 1056 353.5197664 1095.3989376 328 1144 328 C 1192.6010624 328 1232 353.5197664 1232 385 C 1232 416.4802336 1192.6010624 442 1144 442 C 1095.3989376 442 1056 416.4802336 1056 385 Z" stroke-miterlimit="10"/></g><g transform="translate(-294,-158) scale(1,1)"><g><path fill="none" stroke="none"/><text fill="#000000" stroke="none" font-family="Arial" font-size="13px" font-style="normal" font-weight="bold" text-decoration="none" x="1112.57275390625" y="392">Get results</text></g></g><g transform="translate(-294,-158) scale(1,1)"><path fill="none" stroke="#000000" d="M 354 379 L 472 379" stroke-miterlimit="10"/></g><g transform="translate(-294,-158) scale(1,1)"><path fill="#C0C0C0" stroke="none" d="M 703 215 C 703 192.90860800000002 751.3532416 175 811 175 C 870.6467584 175 919 192.90860800000002 919 215 C 919 237.09139199999998 870.6467584 255 811 255 C 751.3532416 255 703 237.09139199999998 703 215 Z" opacity="0.2"/></g><g transform="translate(-294,-158) scale(1,1)"><path fill="#ffffff" stroke="none" d="M 696 208 C 696 185.90860800000002 744.3532416 168 804 168 C 863.6467584 168 912 185.90860800000002 912 208 C 912 230.09139199999998 863.6467584 248 804 248 C 744.3532416 248 696 230.09139199999998 696 208 Z"/></g><g transform="translate(-294,-158) scale(1,1)"><path fill="none" stroke="#000000" d="M 696 208 C 696 185.90860800000002 744.3532416 168 804 168 C 863.6467584 168 912 185.90860800000002 912 208 C 912 230.09139199999998 863.6467584 248 804 248 C 744.3532416 248 696 230.09139199999998 696 208 Z" stroke-miterlimit="10"/></g><g transform="translate(-294,-158) scale(1,1)"><g><path fill="none" stroke="none"/><text fill="#000000" stroke="none" font-family="Arial" font-size="13px" font-style="normal" font-weight="bold" text-decoration="none" x="763.5400390625" y="215">User interface</text></g></g><g transform="translate(-294,-158) scale(1,1)"><path fill="none" stroke="#000000" d="M 632 208 L 664 208 L 664 336" stroke-miterlimit="10"/></g><g transform="translate(-294,-158) scale(1,1)"><path fill="#FFFFFF" stroke="none" d="M 655.580964487968 315.6746502847517 L 664 336 L 672.419035512032 315.6746502847517"/></g><g transform="translate(-294,-158) scale(1,1)"><path fill="none" stroke="#000000" d="M 655.580964487968 315.6746502847517 L 664 336 L 672.419035512032 315.6746502847517 L 655.580964487968 315.6746502847517" stroke-miterlimit="10"/></g><g transform="translate(-294,-158) scale(1,1)"><path fill="none" stroke="#000000" d="M 696 208 L 664 208 L 664 336" stroke-miterlimit="10"/></g><g transform="translate(-294,-158) scale(1,1)"><path fill="#FFFFFF" stroke="none" d="M 655.580964487968 315.6746502847517 L 664 336 L 672.419035512032 315.6746502847517"/></g><g transform="translate(-294,-158) scale(1,1)"><path fill="none" stroke="#000000" d="M 655.580964487968 315.6746502847517 L 664 336 L 672.419035512032 315.6746502847517 L 655.580964487968 315.6746502847517" stroke-miterlimit="10"/></g><g transform="translate(-294,-158) scale(1,1)"><path fill="#C0C0C0" stroke="none" d="M 983 559 C 983 532.4903296 1015.2354944 511 1055 511 C 1094.7645056 511 1127 532.4903296 1127 559 C 1127 585.5096704 1094.7645056 607 1055 607 C 1015.2354944 607 983 585.5096704 983 559 Z" opacity="0.2"/></g><g transform="translate(-294,-158) scale(1,1)"><path fill="#ffffff" stroke="none" d="M 976 552 C 976 525.4903296 1008.2354944 504 1048 504 C 1087.7645056 504 1120 525.4903296 1120 552 C 1120 578.5096704 1087.7645056 600 1048 600 C 1008.2354944 600 976 578.5096704 976 552 Z"/></g><g transform="translate(-294,-158) scale(1,1)"><path fill="none" stroke="#000000" d="M 976 552 C 976 525.4903296 1008.2354944 504 1048 504 C 1087.7645056 504 1120 525.4903296 1120 552 C 1120 578.5096704 1087.7645056 600 1048 600 C 1008.2354944 600 976 578.5096704 976 552 Z" stroke-miterlimit="10"/></g><g transform="translate(-294,-158) scale(1,1)"><g><path fill="none" stroke="none"/><text fill="#000000" stroke="none" font-family="Arial" font-size="13px" font-style="normal" font-weight="bold" text-decoration="none" x="1035" y="559">PDF</text></g></g><g transform="translate(-294,-158) scale(1,1)"><path fill="#C0C0C0" stroke="none" d="M 1175 559 C 1175 532.4903296 1205.4446336 511 1243 511 C 1280.5553664 511 1311 532.4903296 1311 559 C 1311 585.5096704 1280.5553664 607 1243 607 C 1205.4446336 607 1175 585.5096704 1175 559 Z" opacity="0.2"/></g><g transform="translate(-294,-158) scale(1,1)"><path fill="#ffffff" stroke="none" d="M 1168 552 C 1168 525.4903296 1198.4446336 504 1236 504 C 1273.5553664 504 1304 525.4903296 1304 552 C 1304 578.5096704 1273.5553664 600 1236 600 C 1198.4446336 600 1168 578.5096704 1168 552 Z"/></g><g transform="translate(-294,-158) scale(1,1)"><path fill="none" stroke="#000000" d="M 1168 552 C 1168 525.4903296 1198.4446336 504 1236 504 C 1273.5553664 504 1304 525.4903296 1304 552 C 1304 578.5096704 1273.5553664 600 1236 600 C 1198.4446336 600 1168 578.5096704 1168 552 Z" stroke-miterlimit="10"/></g><g transform="translate(-294,-158) scale(1,1)"><g><path fill="none" stroke="none"/><text fill="#000000" stroke="none" font-family="Arial" font-size="13px" font-style="normal" font-weight="bold" text-decoration="none" x="1218.66455078125" y="559">JSON</text></g></g><g transform="translate(-294,-158) scale(1,1)"><path fill="none" stroke="#000000" d="M 879 385 L 1055 385" stroke-miterlimit="10" stroke-dasharray="3"/></g><g transform="translate(-294,-158) scale(1,1)"><path fill="none" stroke="#000000" d="M 1044.837325142376 389.209517756016 L 1055 385 L 1044.837325142376 380.790482243984" stroke-miterlimit="10"/></g><g transform="translate(-294,-158) scale(1,1)"><g><path fill="none" stroke="none"/><text fill="#000000" stroke="none" font-family="Arial" font-size="13px" font-style="normal" font-weight="normal" text-decoration="none" x="939.5" y="361.5">«include»</text></g></g><g transform="translate(-294,-158) scale(1,1)"><path fill="none" stroke="#000000" d="M 1120 552 L 1144 552 L 1144 442" stroke-miterlimit="10"/></g><g transform="translate(-294,-158) scale(1,1)"><path fill="#FFFFFF" stroke="none" d="M 1152.419035512032 462.3253497152483 L 1144 442 L 1135.580964487968 462.3253497152483"/></g><g transform="translate(-294,-158) scale(1,1)"><path fill="none" stroke="#000000" d="M 1152.419035512032 462.3253497152483 L 1144 442 L 1135.580964487968 462.3253497152483 L 1152.419035512032 462.3253497152483" stroke-miterlimit="10"/></g><g transform="translate(-294,-158) scale(1,1)"><path fill="none" stroke="#000000" d="M 1168 552 L 1144 552 L 1144 442" stroke-miterlimit="10"/></g><g transform="translate(-294,-158) scale(1,1)"><path fill="#FFFFFF" stroke="none" d="M 1152.419035512032 462.3253497152483 L 1144 442 L 1135.580964487968 462.3253497152483"/></g><g transform="translate(-294,-158) scale(1,1)"><path fill="none" stroke="#000000" d="M 1152.419035512032 462.3253497152483 L 1144 442 L 1135.580964487968 462.3253497152483 L 1152.419035512032 462.3253497152483" stroke-miterlimit="10"/></g></g></svg>